<svg xmlns="http://www.w3.org/2000/svg" xmlns:xlink="http://www.w3.org/1999/xlink" version="1.1" id="Layer_1" x="0px" y="0px" style="enable-background:new 0 0 245.3 49.6;" xml:space="preserve" viewBox="3.35 2.8 239.35 45.4">
<style type="text/css">
	.st0{fill:#00171F;}
	.st1{fill:#65DA8C;}
</style>
<path class="st0" d="M72.1,39.2c-2,0-4-0.4-5.8-1.1c-1.9-0.8-3.7-1.9-5.3-3.2l2.5-3.3c1.4,1.2,2.9,2.2,4.6,3  c1.4,0.6,2.8,0.9,4.3,0.9c1.1,0,2.1-0.2,3.1-0.5c0.8-0.3,1.5-0.8,2.1-1.5c0.5-0.6,0.8-1.4,0.7-2.2c0.1-1-0.3-1.9-1.1-2.5  c-1.1-0.7-2.4-1.2-3.7-1.3l-4.9-0.8c-1.9-0.2-3.7-1-5.1-2.3c-1.1-1.2-1.8-2.8-1.7-4.4c0-1.5,0.4-2.9,1.2-4.2c0.8-1.3,2-2.2,3.4-2.8  c1.6-0.7,3.4-1,5.2-1c1.9,0,3.8,0.3,5.7,0.9c1.8,0.6,3.5,1.4,5,2.5l-2.3,3.4c-1.3-1-2.6-1.7-4.1-2.3c-1.4-0.5-2.9-0.8-4.4-0.8  c-0.9,0-1.9,0.1-2.8,0.5c-0.7,0.3-1.4,0.7-1.9,1.4C66.3,18,66,18.7,66,19.4c0,0.9,0.3,1.7,1,2.2c0.9,0.6,2,1,3.1,1.2l4.7,0.8  c2.2,0.3,4.2,1.1,5.9,2.5c1.3,1.3,2,3,1.9,4.8c0,1.5-0.4,3.1-1.3,4.3c-0.9,1.3-2.2,2.4-3.7,3C75.9,38.9,74,39.2,72.1,39.2z"/>
<path class="st0" d="M90.5,38.8V12.2h5.9l7.8,16.1l7.7-16.1h5.9v26.5h-4.3V18l-9.4,18.9l-9.4-19v20.9L90.5,38.8z"/>
<path class="st0" d="M139.6,39.2c-3.6,0-7-1.4-9.5-4c-1.2-1.3-2.2-2.7-2.9-4.4c-1.4-3.4-1.4-7.3,0-10.7c0.7-1.6,1.6-3.1,2.9-4.4  c5.2-5.3,13.7-5.3,18.9-0.1c0,0,0.1,0.1,0.1,0.1c1.2,1.3,2.2,2.7,2.9,4.4c1.4,3.4,1.4,7.3,0,10.7c-0.7,1.6-1.6,3.1-2.9,4.4  C146.6,37.7,143.1,39.2,139.6,39.2z M139.6,35.1c1.2,0,2.4-0.2,3.4-0.7c1.1-0.5,2-1.2,2.8-2c0.8-0.9,1.4-1.9,1.9-3  c0.9-2.4,0.9-5.1,0-7.6c-0.4-1.1-1.1-2.1-1.9-3c-0.8-0.8-1.7-1.5-2.8-2c-2.2-1-4.7-1-6.9,0c-1.1,0.5-2,1.1-2.8,2  c-0.8,0.9-1.4,1.9-1.9,3c-0.9,2.4-0.9,5.1,0,7.6c0.4,1.1,1.1,2.1,1.9,3c0.8,0.9,1.7,1.5,2.8,2C137.2,34.8,138.4,35.1,139.6,35.1z"/>
<path class="st0" d="M173.5,39.2c-1.8,0-3.6-0.3-5.2-1c-1.6-0.7-3.1-1.7-4.3-2.9c-1.2-1.3-2.2-2.7-2.9-4.4c-1.4-3.4-1.4-7.3,0-10.7  c0.7-1.6,1.6-3.1,2.9-4.4c1.2-1.2,2.7-2.2,4.3-2.9c3.4-1.4,7.1-1.4,10.5,0c1.6,0.7,3.1,1.7,4.3,2.9c1.2,1.3,2.2,2.7,2.9,4.4  c1.4,3.4,1.4,7.3,0,10.7c-0.7,1.6-1.6,3.1-2.9,4.4c-1.2,1.2-2.7,2.2-4.3,2.9C177.1,38.9,175.3,39.2,173.5,39.2z M173.5,35.1  c1.2,0,2.4-0.2,3.4-0.7c1.1-0.5,2-1.2,2.8-2c0.8-0.9,1.4-1.9,1.9-3c0.9-2.5,0.9-5.1,0-7.6c-0.4-1.1-1.1-2.1-1.9-3  c-0.8-0.8-1.7-1.5-2.8-2c-2.2-1-4.7-1-6.9,0c-1.1,0.5-2,1.2-2.8,2c-0.8,0.9-1.4,1.9-1.9,3c-0.9,2.4-0.9,5.1,0,7.6  c0.4,1.1,1.1,2.1,1.9,3c0.8,0.8,1.7,1.5,2.8,2C171.1,34.8,172.3,35.1,173.5,35.1z"/>
<path class="st0" d="M201.3,38.8L191,12.2h4.9l8.1,21.9l8.3-21.9h4.7l-10.4,26.5L201.3,38.8z"/>
<path class="st0" d="M223.6,38.8V12.2h19v3.9h-14.5v7.4h10.1v3.8h-10.1v7.6h14.6v3.9H223.6z"/>
<path class="st1" d="M30.4,2.8C17.9,2.8,5.9,13,3.7,25.5s6.2,22.7,18.7,22.7S46.9,38,49.2,25.5S43,2.8,30.4,2.8z M43.9,25.5  C42.2,35.1,33,43,23.3,43S7.3,35.1,9,25.5c0.1-0.6,0.3-1.3,0.4-1.9c2.1-6.8,7.3-12.2,14-14.5L24,8.9c1.7-0.5,3.5-0.8,5.3-0.8h0.2  C39.1,8.1,45.6,15.9,43.9,25.5z"/>
<path class="st1" d="M39.5,24.3C38,32.4,30.3,39,22.2,39c-5.2,0.2-9.9-3-11.6-7.9c1.8,2.5,4.6,4,7.7,4.1c0.3,0,0.6,0,0.9,0  c6.9,0,13.5-5.6,14.7-12.5c0.5-2.6,0.1-5.2-1.2-7.5c-1.9-3.2-5.4-5.1-9.1-5c-0.3,0-0.7,0-1,0L22,10.5l0.5-0.2  c1.6-0.5,3.2-0.7,4.9-0.7h0.2C35.5,9.7,40.9,16.3,39.5,24.3z"/>
<path class="st1" d="M28.3,20.5c-1.1,5.8-6.1,10-12,10.2c-1.7,0-3.4-0.4-4.8-1.3c0.3,0,0.6,0,0.8,0c6.4-0.2,11.9-4.8,13.2-11.2  c0.5-2.3,0.1-4.7-1.1-6.7C27.6,13.3,29.1,16.9,28.3,20.5z"/>
<path class="st1" d="M16.3,30.7c-1.7,0-3.4-0.4-4.8-1.3c0.3,0,0.6,0,0.8,0c6.4-0.2,11.9-4.8,13.2-11.2c0.5-2.3,0.1-4.7-1.1-6.7  c3.1,1.9,4.7,5.5,3.9,9C27.2,26.2,22.2,30.5,16.3,30.7z"/>
<path class="st1" d="M39.5,24.3C38,32.4,30.3,39,22.2,39c-5.2,0.2-9.9-3-11.6-7.9c1.8,2.5,4.6,4,7.7,4.1c0.3,0,0.6,0,0.9,0  c6.9,0,13.5-5.6,14.7-12.5c0.5-2.6,0.1-5.2-1.2-7.5c-1.9-3.2-5.4-5.1-9.1-5c-0.3,0-0.7,0-1,0L22,10.5l0.5-0.2  c1.6-0.5,3.2-0.7,4.9-0.7h0.2C35.5,9.7,40.9,16.3,39.5,24.3z"/>
<path class="st1" d="M30.4,2.8C17.9,2.8,5.9,13,3.7,25.5s6.2,22.7,18.7,22.7S46.9,38,49.2,25.5S43,2.8,30.4,2.8z M43.9,25.5  C42.2,35.1,33,43,23.3,43S7.3,35.1,9,25.5c0.1-0.6,0.3-1.3,0.4-1.9c2.1-6.8,7.3-12.2,14-14.5L24,8.9c1.7-0.5,3.5-0.8,5.3-0.8h0.2  C39.1,8.1,45.6,15.9,43.9,25.5z"/>
</svg>