<svg id="Layer_1" data-name="Layer 1" xmlns="http://www.w3.org/2000/svg" viewBox="0 0 187 187"><defs><style>.cls-1{fill:#65da8c;}</style></defs><path class="cls-1" d="M97.51,70.77C85,70.77,73,81,70.77,93.5s6.17,22.73,18.72,22.73S114,106.05,116.23,93.5,110.06,70.77,97.51,70.77ZM111,93.5c-1.7,9.64-10.9,17.45-20.52,17.45S74.37,103.14,76.06,93.5a15.56,15.56,0,0,1,.45-1.88,22.1,22.1,0,0,1,14-14.54l.57-.19a18.92,18.92,0,0,1,5.3-.82h.17C106.21,76.06,112.65,83.88,111,93.5Z"/><path class="cls-1" d="M106.55,92.33c-1.44,8.11-9.18,14.7-17.3,14.7a11.86,11.86,0,0,1-11.62-7.88,10.12,10.12,0,0,0,7.65,4.14c.31,0,.61,0,.92,0,6.88,0,13.45-5.59,14.67-12.47a11,11,0,0,0-1.18-7.5,10.18,10.18,0,0,0-9.1-5c-.34,0-.67,0-1,0l-.53.17.48-.17a16.05,16.05,0,0,1,4.9-.79h.15C102.62,77.71,108,84.26,106.55,92.33Z"/><path class="cls-1" d="M95.46,88.46a12.71,12.71,0,0,1-12,10.21,8.79,8.79,0,0,1-4.8-1.34,7.56,7.56,0,0,0,.83,0A14,14,0,0,0,92.64,86.16a9.9,9.9,0,0,0-1.06-6.74A8.41,8.41,0,0,1,95.46,88.46Z"/><path class="cls-1" d="M83.44,98.67a8.79,8.79,0,0,1-4.8-1.34,7.56,7.56,0,0,0,.83,0A14,14,0,0,0,92.64,86.16a9.9,9.9,0,0,0-1.06-6.74,8.41,8.41,0,0,1,3.88,9A12.71,12.71,0,0,1,83.44,98.67Z"/><path class="cls-1" d="M106.55,92.33c-1.44,8.11-9.18,14.7-17.3,14.7a11.86,11.86,0,0,1-11.62-7.88,10.12,10.12,0,0,0,7.65,4.14c.31,0,.61,0,.92,0,6.88,0,13.45-5.59,14.67-12.47a11,11,0,0,0-1.18-7.5,10.18,10.18,0,0,0-9.1-5c-.34,0-.67,0-1,0l-.53.17.48-.17a16.05,16.05,0,0,1,4.9-.79h.15C102.62,77.71,108,84.26,106.55,92.33Z"/><path class="cls-1" d="M97.51,70.77C85,70.77,73,81,70.77,93.5s6.17,22.73,18.72,22.73S114,106.05,116.23,93.5,110.06,70.77,97.51,70.77ZM111,93.5c-1.7,9.64-10.9,17.45-20.52,17.45S74.37,103.14,76.06,93.5a15.56,15.56,0,0,1,.45-1.88,22.1,22.1,0,0,1,14-14.54l.57-.19a18.92,18.92,0,0,1,5.3-.82h.17C106.21,76.06,112.65,83.88,111,93.5Z"/></svg>